<?xml version="1.0" encoding="UTF-8"?>
<svg width="159px" height="32px" viewBox="0 0 159 32" version="1.1" xmlns="http://www.w3.org/2000/svg" xmlns:xlink="http://www.w3.org/1999/xlink">
    <title>adn_full logo_negative</title>
    <g id="adn_full-logo_negative" stroke="none" stroke-width="1" fill="none" fill-rule="evenodd">
        <path d="M56.0379279,19.1027633 C56.0603057,19.9176394 55.7517217,20.7068614 55.1824945,21.290585 C54.5729135,21.8564408 53.7597663,22.1508713 52.9290797,22.1065185 C52.4167436,22.1342426 51.9100503,21.9882359 51.4910874,21.6921523 C51.1432617,21.4295313 50.9450414,21.0141322 50.9597425,20.5786431 C50.9375126,20.0705668 51.1773384,19.5865561 51.5951158,19.2963475 C52.1251875,18.9651404 52.7451756,18.8069135 53.3691998,18.8435844 L56.0379279,18.8435844 L56.0379279,19.1027633 Z M59.8461668,21.3297818 C59.6855558,21.1443363 59.6105986,20.8997952 59.6397105,20.6562367 L59.6397105,15.9686187 C59.7247973,14.592171 59.1524708,13.25682 58.0968896,12.3689121 C56.8274859,11.4664642 55.2862442,11.027839 53.7316987,11.1266133 C52.2083761,11.0520017 50.6986442,11.4447223 49.4049183,12.2521216 C48.5842204,12.80035 47.9929292,13.6301979 47.7428649,14.5847315 L50.9661442,15.46146 C51.3419202,14.377799 52.4082364,13.6897242 53.5508494,13.793596 C54.1980003,13.7593318 54.8375324,13.9463837 55.364144,14.3239527 C55.8076559,14.6663273 56.0585758,15.201652 56.0379279,15.7614356 L56.0379279,16.4085829 L53.395607,16.4085829 C51.7960744,16.3040141 50.2043988,16.7074616 48.8479663,17.5612889 C47.8072221,18.3202325 47.2181115,19.5515455 47.2803387,20.8378219 C47.2262806,21.9666253 47.7362905,23.0486262 48.64151,23.7255866 C49.6925915,24.4509092 50.9531828,24.8104285 52.2288887,24.7487032 C53.1211673,24.7746398 54.0049779,24.5693355 54.7943886,24.1527518 C55.5258385,23.7323047 56.1404031,23.1355578 56.5820763,22.4168933 C56.5468667,23.867975 57.3670905,24.5932492 59.0427476,24.5927159 L60.9080565,24.5927159 L60.9080565,21.511367 L60.4935434,21.511367 C60.2629539,21.5303641 60.0332103,21.4659224 59.8461668,21.3297818" id="Shape" fill="#FFFFFF" fill-rule="nonzero"></path>
        <path d="M71.1674154,20.7211114 C70.5632339,21.3909494 69.7025486,21.7722631 68.8003124,21.7698326 C67.8980762,21.7673788 67.0394692,21.3814113 66.4389254,20.7083125 C65.8169485,19.9223633 65.4995642,18.9384512 65.5450815,17.9373383 C65.4994381,16.9359635 65.8168257,15.9517572 66.4389254,15.1655642 C67.0220008,14.4635276 67.8977672,14.0714485 68.8099722,14.1040507 C69.7185797,14.0700327 70.5908106,14.4627823 71.1674154,15.1655642 C71.7841128,15.9635262 72.0964438,16.9549181 72.0484557,17.9621363 C72.0955775,18.9576973 71.7828569,19.9369809 71.1674154,20.7211114 M71.9964415,12.9385456 C71.0291222,11.7217935 69.533676,11.0467277 67.9809461,11.1258934 C66.8656286,11.1102094 65.7674614,11.4013268 64.80648,11.9674248 C63.8600205,12.5348721 63.0960628,13.3615751 62.6050795,14.3496307 C62.0596525,15.4564601 61.7884905,16.6781776 61.8144638,17.9117404 C61.7878382,19.1571679 62.0588824,20.3909694 62.6050795,21.5106471 C63.0903648,22.5020675 63.8499297,23.333545 64.7936765,23.9064519 C65.7492011,24.473703 66.8433506,24.7650037 67.9545389,24.7479833 C69.5802442,24.8051191 71.130108,24.059474 72.0996697,22.7537458 L72.9102909,24.5927959 L75.6486379,24.5927959 L75.6486379,6.46387326 L71.9964415,6.46387326 L71.9964415,12.9385456 Z" id="Shape" fill="#FFFFFF" fill-rule="nonzero"></path>
        <path d="M102.398336,20.7085525 C101.798529,21.417743 100.904249,21.8096452 99.9760747,21.770066 C99.0558205,21.8065031 98.1706516,21.4144487 97.5794209,20.7085525 C96.9576952,19.9222012 96.6406061,18.9380394 96.6863773,17.9367783 C96.6407322,16.9357792 96.957818,15.9519116 97.5794209,15.1658041 C98.1704272,14.45961 99.0557505,14.0674872 99.9760747,14.1042906 C100.904319,14.0643428 101.798753,14.4563131 102.398336,15.1658041 C103.019942,15.9519098 103.337028,16.9357787 103.291379,17.9367783 C103.337154,18.9380399 103.020064,19.9222029 102.398336,20.7085525 M103.667482,11.9676648 C101.334249,10.8456251 98.6170998,10.8456251 96.2838675,11.9676648 C95.2448306,12.505645 94.3885635,13.3393398 93.8231962,14.3634695 C92.6655482,16.6054158 92.6655482,19.2689408 93.8231962,21.5108871 C94.389024,22.5346658 95.2451695,23.3682422 96.2838675,23.9066919 C98.6170998,25.0287316 101.334249,25.0287316 103.667482,23.9066919 C104.703566,23.3705369 105.559227,22.5418832 106.128153,21.523686 C107.285797,19.2772213 107.285797,16.6099343 106.128153,14.3634695 C105.562562,13.3395103 104.706354,12.5058731 103.667482,11.9676648" id="Shape" fill="#FFFFFF" fill-rule="nonzero"></path>
        <path d="M131.426735,17.8332668 C131.486796,18.842893 131.223607,19.8454014 130.67533,20.6954335 C130.18492,21.3725656 129.386093,21.7569499 128.55075,21.7177502 C127.783355,21.7719331 127.042854,21.4239239 126.595017,20.7986251 C126.117122,19.9708161 125.896239,19.0196567 125.960444,18.0660478 L125.960444,11.2818006 L122.307447,11.2818006 L122.307447,18.5068119 C122.307447,20.751429 122.799581,22.3528985 123.78385,23.3112204 C124.807352,24.2841462 126.180758,24.8022726 127.592089,24.7479033 C129.102447,24.8183558 130.555812,24.164291 131.504356,22.9872468 L132.28937,24.5927159 L135.079731,24.5927159 L135.079731,11.2818006 L131.426735,11.2818006 L131.426735,17.8332668 Z" id="Path" fill="#FFFFFF" fill-rule="nonzero"></path>
        <path d="M157.126546,12.5504973 C156.218937,11.596673 154.945602,11.0779072 153.629592,11.1258134 C152.702416,11.1094937 151.784137,11.3088582 150.94726,11.7081659 C150.174723,12.0851439 149.517352,12.6621766 149.043541,13.3792297 C148.313835,11.8823488 146.739233,10.9872978 145.079259,11.1258134 C144.275295,11.1151124 143.479029,11.2834359 142.748224,11.6185732 C142.121014,11.9335012 141.572049,12.3844329 141.141385,12.9384656 L140.357171,11.2810007 L137.618024,11.2810007 L137.618024,24.5927159 L141.271021,24.5927159 L141.271021,17.3413069 C141.22585,16.5005646 141.478276,15.6707703 141.984015,14.9974979 C142.446523,14.424825 143.15195,14.1035087 143.887734,14.1303685 C145.441758,14.1303685 146.219037,15.1404195 146.219571,17.1605216 L146.219571,24.5927159 L149.872567,24.5927159 L149.872567,17.3157089 C149.821285,16.4721993 150.079322,15.6389245 150.598365,14.9718999 C151.074889,14.4132159 151.780936,14.1031957 152.514888,14.1303685 C154.051307,14.1303685 154.82005,15.1404195 154.821117,17.1605216 L154.821117,24.5927159 L158.474114,24.5927159 L158.474114,17.2893111 C158.474114,15.0798911 158.024925,13.5002865 157.126546,12.5504973" id="Path" fill="#FFFFFF" fill-rule="nonzero"></path>
        <polygon id="Path" fill="#FFFFFF" fill-rule="nonzero" points="114.396809 20.8638998 114.263973 20.8638998 111.116714 11.2806807 107.203647 11.2806807 111.996954 24.592396 116.530191 24.592396 121.324299 11.2806807 117.489653 11.2806807"></polygon>
        <path d="M85.8306157,11.1261333 C84.9928384,11.0993898 84.1599289,11.2632321 83.3947511,11.6052943 C82.7427537,11.9213953 82.1680347,12.3765841 81.7110918,12.9387856 L80.9268779,11.2813207 L78.1877306,11.2813207 L78.1877306,24.5930359 L81.8407272,24.5930359 L81.8407272,17.781591 C81.781368,16.8210988 82.0558626,15.8696097 82.6177392,15.0882105 C83.1588766,14.4385826 83.9755688,14.0831863 84.81994,14.1298886 C86.6164301,14.1298886 87.5148085,15.2780617 87.5150752,17.5744079 L87.5150752,24.5930359 L91.1672716,24.5930359 L91.1672716,17.3672247 C91.1672716,15.1394063 90.6666017,13.5424698 89.6652618,12.5764152 C88.6338661,11.5976284 87.2518323,11.0749365 85.8306157,11.1261333" id="Path" fill="#FFFFFF" fill-rule="nonzero"></path>
        <path d="M35.8529811,31.9973925 L27.2778417,31.9973925 L18.0913355,5.92111749 L17.7696478,5.92111749 L9.60261972,29.2760143 C9.13968684,30.8451383 7.72363075,31.9416128 6.0880609,31.9973925 L0,31.9973925 L12.0032746,0 L23.8497065,0 L35.8529811,31.9973925 Z" id="Path" fill="#FFFFFF" fill-rule="nonzero"></path>
        <path d="M15.5728885,19.1984355 L18.9306045,29.5975881 C19.3704946,31.0700249 20.7522593,32.0575906 22.2883205,31.9973925 L27.2776817,31.9973925 L22.7692517,19.1984355 L15.5728885,19.1984355 Z" id="Path" fill="#00E6A0" fill-rule="nonzero"></path>
    </g>
</svg>